<?xml version="1.0" encoding="utf-8"?>
<!-- Generator: Adobe Illustrator 24.0.1, SVG Export Plug-In . SVG Version: 6.00 Build 0)  -->
<svg version="1.1" id="svg2" xmlns="http://www.w3.org/2000/svg" xmlns:xlink="http://www.w3.org/1999/xlink" x="0px" y="0px"
	 viewBox="0 0 1602.7 1506.2" style="enable-background:new 0 0 1602.7 1506.2;" xml:space="preserve">
<g>
	<g id="layer1" transform="matrix(1, 0, 0, 1, 275.176056, -309.458435)">
		<path id="path2830" d="M103,1452.5c-6-2.2-7.7-4.4-6.3-8.2c0.7-1.7,1.9-3.2,2.8-3.2c0.9,0,4.8,2,8.7,4.5c3.9,2.5,8.6,5.1,10.5,5.8
			l3.5,1.3l-4.3,0.1c-2.4,0.1-5.8,0.3-7.7,0.6S105.2,1453.3,103,1452.5L103,1452.5z M89.4,1441c-1.1-0.6-3-0.8-4.2-0.5
			c-1.5,0.5-2.6-0.2-3.7-2.3c-0.9-1.6-2.4-3.2-3.5-3.6c-2.4-0.8-7.3-8.9-10.1-16.4c-1.4-3.8-3.3-6.4-5.5-7.7c-4-2.2-4.2-3.3-1.2-4.2
			c3.5-1.1,4.2-7.3,1.2-11.4c-1.4-2-2.1-4.3-1.7-5.4c0.5-1.3-0.9-3.6-4.2-7c-4.2-4.3-5-5.9-5.2-10.4c-0.1-2.9-0.8-6.1-1.6-7
			c-0.9-1.1-1.1-5.2-0.6-13.3c0.6-8.8,0.2-14.2-1.3-21.7c-2.3-11.2-3.4-32.1-2.8-51.1c0.1-4.1-0.4-9.6-1.2-12.4
			c-1.9-6.7-10.5-15.2-21.1-20.8c-7.6-4-8.7-5-11.7-11.2c-1.8-3.7-5.2-9.3-7.7-12.4c-2.4-3.1-5-7.6-5.8-10
			c-2.5-7.8-6.9-15.6-10-17.5c-1.6-1.1-3.4-3.8-4.1-6.1c-1-3.7-0.8-4.7,2.5-9.4c3.5-5.1,3.5-5.3,1.2-5.9c-5.8-1.5-3.3-9.2,7-22.3
			c6.9-8.7,8.9-15.3,7-23c-0.7-2.9-1.4-6-1.4-6.8c-0.1-0.8-0.6-1.5-1.2-1.5s-0.5-1.1,0.2-2.4c1.1-2,0.8-2.6-1.8-3.8
			c-3.8-1.7-9.4,0-9.5,2.8c0,3.4-1.5,3.7-6.5,1.1c-2.6-1.4-5.4-2.5-6.1-2.5c-0.7,0-3.5-1.9-6.2-4.2s-5.5-4.7-6.3-5.4
			c-0.8-0.6-1.5-2.4-1.5-3.9s-1-3.7-2.3-4.8c-1.3-1.2-2.9-3.9-3.7-6.2c-1-3-1.7-3.7-2.6-2.8c-1.9,1.9-4.8,1.6-11.8-1.5
			c-3.7-1.6-7.5-4.4-9-6.5c-1.5-2-4.2-4.5-6.2-5.5c-3.2-1.7-4-1.6-8.7,0.1l-5.1,2l-15.8-7.6c-9.7-4.7-17.2-9.2-19.5-11.6
			c-3.6-3.8-3.7-4.2-2.5-9c1.1-4.3,0.9-5.7-1.5-10.6c-1.5-3.1-4.8-7.9-7.3-10.6s-4.3-5.4-3.9-6c0.3-0.6-1.4-4.4-3.9-8.5
			c-2.9-4.7-4.9-9.6-5.4-13.3c-0.6-4.7-1.4-6.1-3.8-7.2c-2.5-1.1-3.2-1-4.7,1c-2,2.8-1.5,5.7,3,15.4c1.8,3.9,3.7,9.8,4.2,13
			c0.5,3.2,1.9,7.8,3.1,10.3c3,5.8,1,5.7-3.6-0.2c-2.8-3.5-3.5-5.4-3-7.6c0.6-2.3,0-3.5-2.9-5.6c-4.3-3.2-5.3-5.3-3.7-8.3
			c0.9-1.7,0.5-3.6-1.9-8.3c-2.4-4.7-2.9-7-2.3-10.5c1-5.7-1.6-10.9-6.4-12.9c-2.8-1.1-3.7-2.4-4.3-5.8c-0.4-2.4-1.2-6-1.7-8.1
			c-0.6-2.2-0.5-4.1,0.1-4.5c0.6-0.4,0.2-2-0.9-3.6c-1.6-2.4-1.7-3.5-0.6-5.9c0.7-1.6,1-3.5,0.6-4.2c-0.4-0.7,0.6-2.6,2.2-4.3
			s3.8-5.2,4.8-7.7c1-2.5,4.2-7.1,7-10.3c2.8-3.2,6.4-8.7,8-12.3c2.2-5,3.4-6.5,5.4-6.6c1.4,0,2.5,0.6,2.4,1.5
			c-0.4,3.4,2.3,2.3,5.3-2.1c1.8-2.6,2.7-4.9,2.1-5.1c-0.6-0.2-1.1-1.2-1.1-2.2c0-1-2.4-4.2-5.4-7.1c-5-4.8-5.3-5.5-3.6-7.3
			c1.3-1.5,1.5-2.6,0.6-4.1c-1.6-2.8,0.9-9.1,3.6-9.1c1.1,0,1.4-0.4,0.7-0.9c-1.5-1.1-2.2-3.7-2-7.4c0.3-5.9-1-8.4-5.3-10.2
			c-2.4-1-6-3.1-8-4.6s-4.7-2.8-5.8-2.8c-1.1,0-6.3-1.1-11.4-2.4c-8.3-2.1-9.7-2.2-12.6-0.7c-5.9,3.1-12.2,4.3-14.8,2.9
			c-1.9-1-4-0.4-11.3,3.4c-4.9,2.6-10.8,5.1-13.1,5.6c-2.3,0.5-6.6,2.1-9.7,3.7c-8.6,4.4-21,8.7-24.4,8.7c-2.2,0-0.7-1,5.2-3.3
			c10-4,20.2-9.1,21.2-10.7c1.2-1.9-1.4-2.6-4.4-1.2c-2.2,1-3.6,0.9-6.2-0.4l-3.3-1.7l3.6-1.9c4.1-2.1,5.4-4.5,4.4-8.3
			c-0.9-3.6,4.1-6.3,14.9-7.9c5.8-0.9,10.2-2.3,13.2-4.4c5.2-3.6,4.3-6.3-1.3-3.9c-2.7,1.1-4.6,1.1-8.6,0.1c-4.8-1.3-5-1.5-2.8-3.1
			c3.6-2.6,11.1-4.2,16-3.4c3.1,0.5,5.6,0.2,8.3-1.2l3.8-1.9l-2.5-2.6c-1.4-1.5-2.5-3-2.5-3.3c0-1.1,7.1-3.3,10.7-3.3
			c1.8,0,6.6-1.3,10.8-2.9c4.2-1.6,13.8-3.7,21.4-4.8c12.3-1.7,14.9-1.7,24.2-0.2c5.7,0.9,13.5,2.1,17.4,2.5s10.8,1.8,15.3,3
			c10.5,2.9,17.4,2.9,29.2-0.1c5.2-1.3,10.4-2.1,11.7-1.7c1.2,0.4,3.3,0.1,4.6-0.6c1.8-1,3.2-0.9,5.8,0.5c2.3,1.2,5.2,1.6,9.2,1.1
			c4.2-0.5,7.8,0,13.1,1.8c4,1.4,8.5,2.5,10,2.5c2.6,0,2.6,0,0.3,1.7c-2.2,1.6-2.2,1.7-0.1,2.5c1.2,0.5,5.3,0.5,9.1,0.1
			c6.9-0.7,7-0.7,8.9,3l1.9,3.8l2.5-3.2c1.5-1.8,4.9-3.9,8.1-4.8c4.9-1.5,6.3-1.5,11.2,0c3.4,1.1,7.6,1.4,10.6,1
			c3.9-0.6,5.7-0.2,8.3,1.6c3.2,2.3,3.3,2.3,6.2,0.1c1.6-1.2,4.9-2.8,7.3-3.5c5.8-1.6,7.8-5.1,4.3-7.5c-2.5-1.7-2.4-1.9,4.1-5
			c4.8-2.4,7-2.9,8-2c0.9,0.9,0.9,2,0,3.8c-1.6,3.1,0.4,7.7,3,6.8c0.9-0.4,2.5-0.3,3.4,0c1.5,0.6,1.5,1.1-0.2,3.6
			c-4.5,6.9,5.6,5,12.5-2.4c2.8-3,7.1-3.9,11.2-2.4c2.6,1,2.4,1.8-2,6.6c-5.2,5.7-7.8,6.8-15.6,6.8c-3.8,0-8.2,0.8-10.3,1.9
			c-2.9,1.5-4.3,1.6-6.5,0.6c-4.2-1.9-5.7-0.3-2.7,2.9l2.6,2.7l-5.1,1.5c-2.8,0.8-7.5,1.5-10.5,1.6c-4.2,0.1-5.3,0.6-5.3,2.3
			c0,1.4-2.1,2.9-6.5,4.8c-14.3,5.9-26.5,16.4-22.1,19.2c0.8,0.5,2.1,2.4,2.9,4.2c0.9,2,2.6,3.5,4.7,3.9c1.8,0.4,6.5,2.2,10.4,4.1
			c3.9,1.9,8.7,3.8,10.6,4.3c5.4,1.2,5.4,1.3,2.9,7.6c-2.1,5.4-2.2,6.2-0.5,9.4c1,1.9,2.5,3.5,3.3,3.4c3.9-0.1,7.5-3.7,9.8-9.6
			c2.1-5.6,3.1-6.7,9.3-10c9.1-4.9,12.9-9.7,11.9-15c-0.7-3.5-0.3-4.3,2.7-6.5c1.9-1.3,4.4-4.6,5.6-7.2c2.6-5.8,6.8-7.8,13.9-6.6
			c6.3,1,13.7,5,14.6,7.8c0.4,1.2,0.1,3.2-0.7,4.6c-1.1,2.1-0.9,3,1.3,5.3l2.6,2.8l4.3-2.2c2.4-1.2,6.1-3.6,8.4-5.3l4.1-3.1l1,2.6
			c0.5,1.4,0.7,3.3,0.3,4.2c-0.3,0.9-0.1,2.7,0.6,3.9c0.8,1.4,0.8,3,0.2,4.2c-0.7,1.3-0.2,3.4,1.7,6.7c2.7,4.8,2.7,4.8,0.3,6.5
			c-3.1,2.2-1.1,4.5,2.3,2.7c3.4-1.8,7.4-1.6,9.8,0.6c3.6,3.2,0.6,7.1-8.9,11.6c-10.3,4.9-14.9,5.8-28.4,5.9c-10,0.1-11.3,0.4-21,5
			c-5.7,2.7-10.3,5.4-10.3,6c0,2.4,1.8,2.2,8.7-1c4-1.9,9.3-3.4,11.8-3.4c4.2,0,4.4,0.1,3.1,2.6c-0.8,1.4-2.4,3.4-3.7,4.5
			c-2,1.6-2.1,2.3-0.9,5c1.9,4.1,6.7,6,12.5,5.1l4.6-0.8l-3.5,2.4c-1.9,1.3-5.1,2.8-7.1,3.2c-2,0.4-6,2-9,3.5c-3,1.5-6,2.3-6.8,1.8
			c-1.9-1.2,0.1-2.9,6.2-5.4c5.4-2.3,4.5-4.7-1.3-3.6c-2.3,0.4-9.6,3.2-16.3,6.2c-10.5,4.6-12.3,5.8-12.9,8.6
			c-0.8,3.4-3.3,5-12.3,7.8c-2.9,0.9-6.6,3-8.3,4.7s-4.9,4.3-7.1,5.7c-2.2,1.4-4.4,3.9-4.8,5.5c-0.6,2.7-0.8,2.7-1.6,0.7
			c-1.5-3.8-3.7-0.1-3.8,6.5c-0.1,6.7-3.5,11.3-11,14.8c-7.7,3.6-18.6,12.1-20.8,16.2c-1.9,3.6-2,5-0.8,14.3
			c1.1,8.7,1.1,10.9-0.4,13.7c-1.1,2.1-2.4,3.1-3.5,2.7c-2.5-1-5.6-11.4-4.8-16c0.6-3.2,0.2-4.4-2.2-6.7c-1.9-1.8-3.7-2.5-5.2-2
			c-1.3,0.4-4.8-0.4-8-1.7c-4.8-2-6.3-2.2-9.7-1.1c-2.3,0.8-4.6,2.6-5.3,4.2c-1.1,2.5-1.9,2.8-4.9,2.1c-2-0.4-5.1-1.5-6.8-2.4
			c-4.3-2.2-6.7-2.1-11.6,0.7c-2.3,1.3-6.9,3.8-10.3,5.5c-3.9,2-6.6,4.3-7.3,6.2c-0.6,1.7-2.8,8.2-4.8,14.4l-3.7,11.4l1.9,7.4
			c3.5,13.5,8.4,17.6,18.5,15.4c7.7-1.6,12.2-5,13.9-10.1c1.1-3.3,2.2-4.3,5.7-5.3c5.2-1.4,7.4-1.5,9.4-0.2c1.7,1,1.1,2.8-6.3,18.8
			c-5.1,11-4.7,12,4,10.7c7.9-1.1,15.2-0.3,16,1.9c0.3,0.9-0.2,6.7-1.2,12.9c-1.8,11.1-1.8,11.4,0.8,15.5c1.4,2.3,4.1,5,5.9,5.9
			c2.9,1.5,3.8,1.5,7.5,0c5.8-2.4,9-2.2,13.1,1.1c3.2,2.6,3.7,2.7,6.3,1c1.5-1,3.6-3.5,4.6-5.5c2.3-4.5,6.1-7.7,9.4-7.8
			c1.3,0,3.7-1.4,5.2-3c3.1-3.3,8.6-4.4,5.9-1.2c-2.2,2.7-3.5,11.4-2.1,14.1c1.2,2.2,1.3,2.2,3.5-0.5c1.6-1.9,1.9-3.2,1-4
			c-2-2-1.4-3.7,2.4-6.5c3.9-2.9,7-2.6,10.3,1c2.5,2.6,15.7,6.2,19.5,5.3c5.8-1.5,21.4,8,27.3,16.6c2.8,4.1,11.7,8.1,15.6,7.2
			c8.1-2,19.1,6.1,21.7,15.9c0.8,2.9,1.9,5.6,2.6,6.1c1.7,1.1-0.9,5.3-6.5,10.7c-3.6,3.4-4.5,4.9-3.5,5.9c1,1,2.7,0.1,6.7-3.6
			c5.8-5.4,7.8-5.9,10.7-3c1.8,1.8,1.7,2.1-0.7,4.7c-1.4,1.5-3.5,2.8-4.5,2.9c-1.1,0-0.6,0.6,1,1.2c2.3,0.9,3.5,0.7,5.9-1.3
			c6.2-5,7.7-5.3,13.2-2.2c3.6,2,5,3.5,4.9,5.2c-0.5,4.5,0.6,5.5,3.7,3.5c2.5-1.6,4.2-1.7,12.5-0.6c8.8,1.2,10,1.7,14.2,5.9
			c3.1,3.1,6.7,5.2,11.1,6.5c6,1.7,6.6,2.3,7.7,6.3c1.6,5.8-0.3,12.3-5.2,18.4c-2.1,2.6-4.7,6.5-5.8,8.6c-1.1,2.1-3.3,5.2-5,6.9
			c-2.9,2.9-3,3.6-2.3,10.4c1.4,13.3-5.1,38.1-11.4,43.4c-2,1.7-3.8,2.1-7,1.6c-2.7-0.4-4.6-0.1-5.1,0.7c-0.5,0.7-3,2.3-5.7,3.5
			s-6.7,3.7-8.9,5.6c-3.8,3.3-3.9,3.6-2.7,7.5c1.5,4.5,0.5,9.8-2.7,14.3c-1,1.5-1.9,4-1.9,5.5c0,1.6-1.2,4.5-2.7,6.5
			s-4.4,6.6-6.5,10.2c-5,8.9-8.1,10.4-15.4,7.8c-6.3-2.3-9.7-2.5-9.7-0.8c0,0.7,1.3,1.8,2.8,2.5c1.5,0.7,3.9,3.6,5.3,6.4
			c2.1,4.2,2.3,5.6,1.2,8c-1.7,3.7-8.1,6.8-14.1,6.8c-5.3,0-6.6,1.3-4.8,4.7c1.1,2.1,0.4,5.5-1.8,8.1c-0.2,0.2-2-0.5-4.1-1.6
			c-5-2.6-6.7-0.9-4.2,3.9c1,2,3,3.9,4.3,4.4c2.3,0.7,2.4,0.9,0.5,3c-1.1,1.2-1.7,3.1-1.3,4.1c0.4,1.1-0.5,3.6-2.4,5.9
			c-3,3.9-3,4.2-1.1,7.1c1.1,1.7,2.8,3.3,3.8,3.7c3.6,1.4,4.1,6,1.4,11.3c-2.7,5.3-3.1,10.7-1,13.2
			C98.7,1438.1,92.3,1442.6,89.4,1441L89.4,1441z M2.4,929.4c3.2-6.6,9-11.5,13.8-11.5c3.4,0,3.4,0.6,0.3,4.5l-2.5,3.1l2.5,2
			c2,1.6,3.1,1.8,5.4,0.7c1.6-0.7,3.2-2.3,3.6-3.6c0.5-1.7,1.4-2.1,3.5-1.6c1.9,0.5,3.1,0.1,3.9-1.3c2.4-4.3-3.7-9.8-8.2-7.4
			c-3.2,1.7-7.4-1.7-6.5-5.3c0.3-1.3-0.4-3.7-1.5-5.2c-2.4-3.2-6.2-3.6-14.3-1.3c-2.9,0.8-6.3,1.4-7.4,1.4c-1.2,0-1.8,0.4-1.4,1
			c0.4,0.6,0.3,1.1-0.3,1.1c-0.5,0-2.3,1-3.9,2.3l-2.9,2.3l3.3,1.3c2.6,1,4.1,0.8,7-0.6c3.4-1.7,4-1.7,7.7,0
			c2.2,1.1,5.2,1.6,6.8,1.2c1.5-0.4,3.1-0.2,3.5,0.5c0.4,0.7-1.3,1.5-3.8,1.9c-6.9,1.2-10.5,4-15.5,12.4c-4.2,7-4.4,7.9-2.8,9.7
			c1.6,1.8,2.1,1.8,4.3,0.3C-1.7,936.4,0.8,932.8,2.4,929.4L2.4,929.4z M23.8,936.7c4.2-2.1,4.6-2.7,3.1-4.2
			c-1.5-1.5-2.4-1.4-7.2,0.7c-5.7,2.5-7.5,5.9-3.1,5.9C17.9,939.2,21.2,938.1,23.8,936.7z M44.8,927.8c2.5-1.7,2.6-2.1,0.8-3
			c-2.6-1.4-10.1,1-10.1,3.3C35.4,930.4,41.3,930.2,44.8,927.8z M133.5,1437.8c0-0.5,0.6-1.6,1.4-2.4c0.8-0.8,1-1.4,0.4-1.4
			s-1.6,0.9-2.4,1.9c-1.1,1.5-1.9,1.7-3.7,0.6c-1.3-0.7-1.6-1.3-0.7-1.3c0.9,0,1.2-0.6,0.8-1.2c-0.8-1.2,1.3-1.6,7.1-1.2
			c5.2,0.4,5.7,1.1,2.5,3.6C135.9,1438.9,133.5,1439.5,133.5,1437.8L133.5,1437.8z M1119.8,1408.2c-3.4-2.1,3.7-6.9,21.1-14.2
			c4.9-2,12.3-6.3,16.5-9.5c7.1-5.4,7.7-5.6,9.2-3.6c2.1,3.1,0.9,5.3-4.4,7.7c-2.5,1.1-5.7,3.3-7,4.9s-3.5,2.8-4.8,2.8
			s-4.4,1.8-6.8,4C1135.2,1407.7,1124.7,1411.3,1119.8,1408.2L1119.8,1408.2z M1037.2,1392.8c-1.2-0.8-1.3-1.6-0.3-3.4
			c0.7-1.3,1.3-4.1,1.3-6.1c0-3.3,0.3-3.6,2.7-2.8c1.5,0.5,4.5,1,6.8,1.1c2.3,0.1,4.5,0.2,5,0.3c2,0.4-3.3,6.3-8,9.1
			C1039.1,1394.3,1039.3,1394.2,1037.2,1392.8L1037.2,1392.8z M1173.6,1382.5c-0.4-0.4,0.6-1.8,2.2-3c2.4-1.9,2.7-2.7,1.6-4.7
			c-1.5-2.8,0.7-5.9,6-8.1c4.1-1.7,5.1-5.1,4-13.3c-0.7-5.7-0.7-6,1.2-4.5c1.4,1.2,1.8,2.7,1.3,5.4c-0.6,3-0.1,4.5,2.4,7.5
			c2.7,3.2,3.5,3.5,5.6,2.4c2.1-1.1,2.3-1,1.7,0.7c-0.4,1.1-0.8,2.2-0.8,2.5s-1.7,1.3-3.8,2.4c-2.1,1.1-6.2,3.9-9.2,6.4
			c-4.8,3.9-9.6,7.1-10.9,7.1C1174.6,1383.3,1174.1,1382.9,1173.6,1382.5L1173.6,1382.5z M1048.8,1367.3c-2.5-2.6-2.9-2.7-5.3-1.2
			c-3,2-8.8,0.8-13.4-2.7c-2.4-1.9-2.6-2.5-1.4-4.9c1.1-2,1.1-3.4,0.1-5.6c-0.7-1.6-1.3-3.9-1.3-5.2c0-2.9-1.9-3-3.4-0.2
			c-0.6,1.1-1.5,1.7-1.9,1.3c-0.4-0.4,1-2.7,3-5.1c5.1-5.8,3.1-7.4-3.6-2.9c-2.9,2-5.5,4.1-5.7,4.7c-0.2,0.7-1.6-1.4-3.1-4.5
			c-1.6-3.4-4.4-6.8-6.9-8.4c-3.8-2.5-5-2.7-12.2-2c-10.6,1.1-20.8,3.7-27.4,7c-3,1.5-9,3.1-13.5,3.6c-4.5,0.5-11.6,2.2-15.8,3.7
			c-6.4,2.4-8.3,2.7-11.6,1.6c-4.4-1.4-6.2-4.4-3.4-5.5c1-0.4,2.9-3.1,4.1-6c2-4.7,2.1-6.1,0.9-12.2c-1-5-1-9.7-0.1-17.4
			c0.7-5.8,0.9-11.7,0.6-13.1s0.2-4.8,1.3-7.6c1.9-4.9,2.3-5.2,15-10.6c7.2-3,14.5-5.5,16.3-5.5c4.9,0,10.9-4.6,14.3-11
			c2.1-3.9,3.5-5.4,4.7-4.9c3.4,1.3,4.1,1.1,3.9-1.5c-0.2-1.6,0.5-2.8,1.9-3.3c1.2-0.4,3.5-2.5,5-4.8c1.6-2.3,4.8-4.9,7.4-5.9
			c4.3-1.7,4.7-1.7,7.1,0.4c4.3,3.9,7.4,5.1,8.9,3.3c0.7-0.9,1-1.9,0.5-2.3c-1.4-1.4,4.8-9.1,7.9-9.9c1.6-0.4,5-1.7,7.4-3
			c3.8-1.9,5.2-2,9.4-0.9c9.2,2.5,9.5,2.9,6.1,8.1c-4.4,6.7-3.2,9.3,7.6,16.9c5,3.5,9.7,6.2,10.5,5.9c0.8-0.3,3.2-3,5.4-6
			c3-4.1,4.2-7.2,4.6-12c0.7-6.9,4-16.5,5.7-16.5c0.6,0,1.8,2.8,2.9,6.3c1,3.5,3.1,7.5,4.7,9c3.7,3.5,5.8,13.2,4.2,18.9
			c-1.1,3.8-0.9,4.4,2.9,8.3c2.2,2.3,5.8,7.9,7.8,12.4s5.8,11,8.3,14.3l4.6,6l-1.3,9.3c-0.9,6.8-2.4,11.3-5.3,16.4
			c-4.5,7.9-11.1,15.4-14.6,16.5c-1.3,0.4-4.2,3.4-6.5,6.6c-2.3,3.2-4.7,5.8-5.4,5.8c-0.6,0-3.3,2.8-6,6.1c-4.4,5.6-5.3,6.1-9.9,6.2
			c-3.6,0.1-6.3,1-9.2,3.3l-4.1,3.2L1048.8,1367.3L1048.8,1367.3z M472.8,1342.4c-2.5-2.5-2.9-3.8-2.4-7.2c0.5-3.2,0-5.1-2.2-8.5
			c-1.6-2.3-2.9-4.8-2.9-5.6c0-0.7-2.1-4.1-4.6-7.5c-3.9-5.3-4.8-7.4-5.4-14.1c-1.1-11.8-4.9-24.6-10-33.8
			c-2.5-4.6-4.9-10.5-5.3-13.1c-0.9-5.7,1.4-14.1,6.7-24.4l3.5-6.8l-2-5.9c-1.1-3.3-1.6-7.2-1.2-8.9c0.5-2,0-4.3-1.5-6.7
			c-1.3-2.1-3.1-6.7-4.1-10.2c-1.4-4.8-3.3-7.9-7.1-11.7c-7.5-7.3-8.5-10.2-6.1-18.2c4.7-16.3-0.4-25.8-12.9-23.9
			c-4.9,0.7-5,0.6-5.7-2.8c-0.5-2.6-2-4.2-5.5-6c-4.7-2.4-6.7-2.4-12.4-0.1c-1.3,0.5-6.6,2.4-11.8,4.1c-7.8,2.6-10.2,2.9-13.6,1.9
			c-3.2-0.9-5.9-0.7-12.5,1.1c-6.8,1.9-9.3,2.1-13,1.1c-7.7-2.1-20.9-14-22.8-20.5c-1.5-5-10.5-16.7-13.6-17.6c-2-0.5-2.2-1-1-1.7
			c1.2-0.8,1-1.2-0.9-1.7c-3-0.8-3.3-3.2-0.4-3.2c1.8,0,1.8-0.2,0.3-1.2c-1.1-0.7-1.2-1.2-0.3-1.2c0.9,0,0.6-1.5-1-4.2
			c-2.3-3.8-2.3-4.3-0.6-6.3c5.3-5.8,6.4-18.4,2.4-26.3c-1.9-3.8-0.7-9,3.4-14.4c1.5-2,4.5-7,6.7-11.1c3.7-7.1,12.1-16.9,14.3-16.9
			c2.5,0,10.5-8.7,10.5-11.3c0-6.1,3.6-12.1,9.5-15.9c3.2-2,6.9-5.5,8.3-7.7c2.8-4.5,3.2-4.7,6.5-2.4c1.3,0.9,4.5,2,7.1,2.4
			c4,0.7,5.9,0.2,11.8-3c10.2-5.5,16.5-6.8,28.2-6.1c7.7,0.5,11.2,0.2,14.9-1.3c5.5-2.2,10.2-0.9,9,2.5c-0.4,1-0.2,2.5,0.5,3.3
			c0.8,1,0.8,2.5,0,4.8c-1.1,2.9-0.8,3.7,1.8,6.5c1.7,1.8,4.7,3.6,6.8,4c9.5,1.9,12.2,3.1,14.2,6.4c1.4,2.4,3.3,3.7,6.4,4.3
			c2.4,0.5,5.9,1.6,7.8,2.6c3.2,1.6,3.6,1.6,6.3-0.9c1.8-1.7,2.6-3.5,2.2-4.8c-0.4-1.2-0.1-3.2,0.6-4.5c1.8-3.4,7-3.1,15.1,1
			c8.8,4.4,25.6,7.6,31.5,5.9c2.9-0.8,5.6-0.8,8.1,0c8.2,2.5,12.3,0.5,13.5-6.3c0.4-2.3,1-4.1,1.4-4.1c0.8,0,1.2-3.4,1.3-10.9
			c0-2.4,0.6-4.4,1.3-4.4c0.8,0,0.8-0.9-0.1-2.5c-1.5-2.7-4.4-2.7-11.4,0.2c-3.3,1.4-4.3,1.3-7.3-0.5c-3.9-2.3-7.9-2.6-9-0.8
			c-0.9,1.4-6.9,0.4-10.2-1.6c-2.4-1.5-4.6-5.8-4.6-9.1c0-1.2-1.2-3.1-2.7-4.1c-2.3-1.6-2.4-2-0.9-3c1-0.6,3-0.9,4.5-0.5
			c1.9,0.4,3.6-0.3,5.8-2.5c2.1-2.1,4.6-3.2,7.4-3.3c2.3-0.1,5.7-1.2,7.5-2.4c3.9-2.6,12.8-1.9,19.6,1.6c9.3,4.6,17.5,4.4,20.8-0.7
			c1.7-2.6,1.7-3.2,0.1-5.7c-1-1.5-5.8-5-10.6-7.8l-8.8-5l1.7-3.2c0.9-1.8,1.4-3.5,1-3.9c-0.4-0.4-0.2-1.4,0.3-2.2
			c0.5-0.9,1.1-2.2,1.2-3.1c0.3-1.8-1.6-1.3-11,2.9c-5.5,2.4-6.3,3.2-5.1,4.6c0.8,1,2.6,1.8,4,1.8c1.9,0,1.5,0.6-2,2.4
			c-4.2,2.2-4.7,2.3-7.5,0.5c-2.4-1.5-2.7-2.3-1.5-3.6c1.1-1.3,0.9-1.8-0.8-2.5c-1.2-0.5-2.8-1.6-3.5-2.5
			c-3.4-4.5-14.1,7.4-17.2,19.1c-1.5,5.5-1.4,5.8,1.3,7.9l2.9,2.2l-5.3,1.1c-2.9,0.6-6.8,0.7-8.7,0.2c-3.4-0.9-7.8,0.5-7.8,2.5
			c0,0.6-0.8,0.8-1.8,0.4s-2.5-0.1-3.5,0.7c-1.4,1.2-1.3,2.2,1.1,6.6c2.6,4.8,2.7,5.5,1,8.7c-2,4-3.9,3.7-6.7-1.1
			c-2-3.4-2-3.4,0.7-3.8c3.3-0.5,3.5-2.6,0.3-3.1c-7.3-1.2-11.2-5-11.2-11.1c0-4.7-4.4-9.9-9.7-11.5c-2.8-0.8-5.8-2.6-6.7-3.9
			c-0.9-1.3-3.6-3.2-5.9-4.1c-2.3-1-5-2.8-5.8-4c-1.2-1.8-2-2-3.9-1c-1.3,0.7-2.3,2-2.3,2.9c0,3.1,15.1,16.9,22.4,20.7
			c7.8,3.9,9,5.3,3.6,4.2c-4.8-1.1-6.1,0-4.5,3.6c1.2,2.5,1,3.3-1.4,5.6l-2.7,2.6l0.6-3.5c1-5.6-6.4-13.6-12.5-13.6
			c-2.2,0-10.8-8.3-13.1-12.7c-2.4-4.7-5.1-5.6-8.9-3c-5.7,3.9-10,5.2-14.5,4.4c-6-1-9.7,1.1-8.8,4.9c0.5,2,0.2,2.9-0.9,2.9
			c-0.9,0-3.2,1.3-5,3s-3.8,3-4.3,3c-1.5,0-5.6,7.5-5.6,10.1c0,2.5-4.6,7.5-9.1,9.8c-1.4,0.7-4.7,1.3-7.3,1.3
			c-3.6,0-5.1,0.6-6.1,2.4c-1.3,2.4-1.3,2.4-4.4-0.6c-2.8-2.8-4.5-3.6-10.2-4.4c-3-0.5-3.5-7.3-1.3-17c1-4.2,1.4-8.8,1.1-10.3
			c-1.1-4.5,2.4-7.1,8.2-6.2c13.5,2.1,21.4,2.2,23.3,0.3c2.5-2.5,3.7-11,2.1-15.7c-1-3.1-2.4-4.3-6.6-5.9c-6.1-2.3-6.3-4.6-0.3-4.7
			c2.3,0,5.6-1,7.3-2.1s3.7-1.8,4.3-1.4c1.7,1,8-2.6,10.1-5.8c1-1.5,3-3.1,4.4-3.5c1.4-0.4,5.3-3.1,8.5-6.2c4.6-4.3,7-5.6,11-6.1
			c4.9-0.6,9.8-4.6,7.5-6.1c-1.4-0.9-2.6-6.7-1.8-8.8c0.4-1,2.1-2.7,3.7-3.8l3-2l-0.8,4.9c-0.7,4.2-0.5,4.8,1.3,4.5
			c1.1-0.2,3.3-1,4.8-1.8c2.2-1.2,2.8-1.2,3.4,0.4c1,2.6-1.8,5.7-3.7,4.1c-1.1-0.9-1.8-0.9-2.4,0.1c-0.6,1-1.1,0.9-1.8-0.2
			c-0.5-0.9-1.2-1.3-1.6-1c-0.3,0.3,0.6,2.1,2.1,4c2.5,3.1,3,3.3,6.5,2c3.1-1.1,4.5-1,7.1,0.4c2.9,1.5,3.9,1.4,9.6-0.7
			c4.9-1.9,6.9-2.1,9.1-1.1c2,0.9,3.5,0.9,5.4-0.1c5.3-2.7,6.8-4.8,6.1-8.6c-1-5.6,0.8-7.5,5.5-5.7c3.2,1.2,4.1,1.2,5.6-0.3
			c1.5-1.5,1.4-2.1-1.1-4.8c-2.4-2.6-2.6-3.2-1.1-4.2c1-0.6,4.5-0.9,8-0.5c6.3,0.7,14.1-1.8,12.7-4c-1.2-1.9-8.4-2.5-14.5-1.1
			c-5.4,1.2-6.8,1.1-11-0.8c-6.4-2.9-7.2-6.3-2.8-12.5c5.7-7.9,6.7-10.4,5.1-12.4c-2.4-2.9-4.8-1.9-10.2,4.1
			c-2.9,3.2-6.8,6.5-8.8,7.3c-1.9,0.8-4.3,3-5.3,4.9c-1.6,3.1-1.6,3.8,0,6.2c1,1.5,2.9,3.1,4.2,3.5c3.6,1.1,2.9,3.3-2.3,6.9
			c-1.6,1.1-3.7,4.2-4.7,6.9c-1.3,3.4-3.2,5.7-6.2,7.4c-4.2,2.4-4.4,2.4-6.7,0.3c-1.3-1.2-2.7-3.6-3.1-5.4c-0.4-1.8-2.2-5-3.9-7.1
			l-3.2-3.9l-4.1,2.5c-2.3,1.4-5.2,2.5-6.5,2.5c-3.7,0-8.1-4.1-8.4-7.8c-0.1-1.9-0.6-4.3-1.1-5.4c-1.1-2.6,4.2-7.6,9.7-9.1
			c5.5-1.5,16.7-9.4,18.6-13c0.8-1.6,3.7-4.9,6.4-7.3s4.8-4.9,4.8-5.5c0-0.6,2.5-2.1,5.6-3.2c3.1-1.1,8.3-3.1,11.5-4.4
			c4-1.6,9-2.5,15.4-2.7c11.1-0.3,18.4,1.2,24.5,5c3,1.9,5.4,2.5,7.7,2.1c4.1-0.8,25.8,5.9,26.7,8.3c0.9,2.4-5.3,4.6-10.7,3.8
			c-2.5-0.4-7.5-1.3-11.3-2.1c-5.1-1.1-7.2-1.1-8.2-0.1c-1,1-0.5,1.7,1.9,2.8c1.8,0.8,4,3,4.9,4.8c2.4,4.6,10,8.4,14,6.9
			c3.8-1.4,3.8-1.9-0.2-4.1c-3.7-2-2-2.4,2.7-0.7c3.7,1.4,7.9-0.3,6.9-2.9c-0.5-1.2,0.8-2.1,4.5-3c7.8-2,8.4-2.3,7.7-3.9
			c-2.4-6-2.5-5.8,1.1-5.4c1.9,0.2,3.3,1,3.1,1.8c-0.2,0.8,0.8,2,2.2,2.8c2.1,1.1,3.7,0.7,9.3-2.2c8.3-4.3,14.7-5.7,17.1-3.8
			c1.3,1.1,3.6,1.1,10,0c4.5-0.8,8.8-1.1,9.4-0.7s1.5,0.1,1.9-0.5c0.9-1.5-1.6-4.9-3.1-4.1c-1.7,1.1-7.3-0.8-6.1-2
			c1.2-1.2,34.1,6.4,36.1,8.4c1.3,1.3,5.5-0.4,5.5-2.3c0-0.6-2.3-2.3-5.2-3.7c-8.9-4.3-9.5-11.2-1.1-13.3c4.8-1.2,6.9,0.2,13.7,9.1
			c8.7,11.6,8.5,11,5.6,15c-2.1,3-2.2,3.7-0.8,4.2c2.8,1.1,8.7-2.7,9.5-6c1-3.9-0.8-7.2-5.2-9.5c-3.4-1.8-5.9-5-5.9-7.7
			c0-0.9,1.3-1.2,3.8-0.7c3.8,0.7,7-0.7,15.7-6.9c2-1.4,5.3-2.3,8.7-2.4c6.9-0.2,9.1-1.3,7.1-3.7c-0.8-0.9-1.2-1.9-0.9-2.2
			c1.5-1.5,21-4.2,25.4-3.6c4.3,0.6,5.6,0.3,9.2-2.4c2.3-1.7,4.1-3.6,4.1-4.2c0-1.4-10.3-1.3-11.2,0.1c-1.2,2-2.8,1.3-2.4-1
			c0.4-2-0.6-2.3-9.2-3c-23.5-1.8-25.4-2.3-22.6-5.1c2.5-2.5,8.6-2.4,13.6,0.1c2.1,1,5.5,1.9,7.7,1.9s4.2,0.5,4.6,1.2
			s2.5,1.2,4.6,1.2c5.9,0,17.3,2.5,16.6,3.7c-0.3,0.6,0.8,1,2.4,1s4.8,0.9,6.9,2c2.8,1.5,6.7,2,15,2.1c8.9,0,11.9,0.5,14.5,2.2
			c1.8,1.2,3.2,2.5,3.2,2.9c0,0.4-2.7,2.2-6.1,4.1c-8,4.4-6.3,6.4,3.4,3.8c6.3-1.6,7.7-1.6,12.9-0.1c4.3,1.3,6.9,1.4,9.8,0.6
			c2.9-0.8,5.9-0.7,10.9,0.7c5.3,1.4,8,1.5,11.3,0.6c7.6-2.1,16.9-1.5,22.4,1.4c2.7,1.5,7.7,4.2,11,6c6,3.3,6.3,3.3,10.4,1.4
			c3.5-1.6,5.4-1.7,10.5-0.7c5.1,1,7,0.9,9.8-0.6c2.8-1.5,3.3-2.2,2.2-3.5c-2.1-2.5,5.3-3.4,14.3-1.8c4.1,0.7,9.4,1.5,11.7,1.6
			c2.3,0.2,6.7,1.5,9.9,2.9c4.8,2.2,8.4,2.7,22.5,3c13.4,0.4,17.6,0.9,20.8,2.6c3.3,1.7,7,2.2,19.4,2.3c11.4,0.1,16.5,0.7,19.9,2.1
			c5.5,2.3,7.6,1.5,4.7-1.8c-2.1-2.4-2.1-2.4,6.1-1.6c13.8,1.4,30.4,4.4,36,6.6c2.9,1.1,8.5,2.4,12.4,2.9c3.9,0.5,9.6,2.1,12.6,3.7
			c4.6,2.3,6.1,2.6,9.1,1.6c4.1-1.4,6.7-0.4,12.9,5l3.9,3.3l-2.9,0.7c-2.9,0.7-10.6-1.2-13.3-3.3c-0.8-0.6-1.9-0.8-2.4-0.5
			c-0.6,0.3-3.3-0.2-6.1-1.1c-6.6-2.3-9.5-1.4-6.5,1.9c2.1,2.3,2,2.3-1.9,2c-7.3-0.5-5.3,1.7,5.4,5.8c5.8,2.3,10.9,4.4,11.2,4.7
			c1.1,1.1-2.5,2.4-5.2,1.9c-2.9-0.6-10.1,2.6-10.1,4.4c0,0.6-1.1,2.2-2.5,3.5c-2.3,2.2-2.8,2.2-5.9,0.6c-2.9-1.5-3.8-1.5-6.6-0.1
			c-1.8,0.9-4.8,2-6.8,2.5c-1.9,0.5-4.2,1.4-5,2.1c-2.4,2,1.8,7.7,7.7,10.6c3.2,1.6,5.5,3.6,6.2,5.6c0.6,1.7,1.9,4.5,2.9,6.2
			c1.6,2.8,1.6,3.2-0.1,3.8c-1.2,0.5-1.6,1.4-1.1,2.8c0.5,1.1,1,3.4,1.1,5s0.7,3.8,1.2,4.9c0.6,1.4,0.1,2.2-1.8,2.8
			c-2.1,0.7-3.5-0.1-6.9-3.9c-2.4-2.6-6.3-6.2-8.7-8s-6.8-6.4-9.7-10.3c-5.1-6.8-5.2-7.1-3.5-10.4c1-1.9,1.8-4.6,1.8-6.1
			c0-1.5,0.8-4,1.7-5.6c1.7-3.1,1-5.5-2.6-9.7c-2.4-2.7-6.7-0.7-5.6,2.7c1,3.1-2,4.1-5.5,1.8c-1.5-1-5-2.2-7.7-2.6
			c-4.7-0.8-5.1-0.6-6.3,2.6c-0.7,1.9-1,4.8-0.7,6.6c0.5,2.7,0.2,3.3-2.6,3.9c-1.9,0.4-5.1-0.1-7.8-1.2c-2.9-1.2-5.7-1.6-7.6-1
			c-1.7,0.5-7.4,0.9-12.7,1c-8.4,0.1-10,0.5-12.6,2.9c-1.6,1.5-3.6,5.2-4.3,8.3c-0.8,3-2.1,6.7-3.1,8.1c-1.6,2.5-1.5,2.8,3.2,5.1
			c5,2.6,10.5,3.2,14.7,1.8c3.2-1.1,13,6.5,16,12.5c1.2,2.4,3.3,5,4.6,5.7c4.8,2.6,5.8,19.5,1.8,30.6c-2.8,7.7-5.9,10.2-10.5,8.4
			c-1.8-0.7-3.4-1.2-3.6-1.2c-0.2,0-1.5,2.2-2.9,4.8c-1.8,3.5-2.2,5.3-1.3,6.3c1.7,2.1,0.4,4.8-3,6.3c-1.6,0.7-2.9,1.8-2.9,2.5
			s3.7,3.7,8.2,6.8c5.7,4,8.8,7,10.2,10.1c1.1,2.5,1.8,4.7,1.5,4.9c-0.3,0.2-2.7,1.5-5.4,2.9l-4.9,2.5l-2.9-6.7
			c-3.3-7.6-6.1-10.6-11.1-11.9c-2.5-0.7-3.4-1.6-3.4-3.7c0-1.9-1.2-3.5-3.8-5c-3.8-2.2-3.9-2.2-7.9,0.3c-4,2.5-4.1,2.5-5.3,0.2
			c-0.7-1.3-1.3-3.2-1.3-4.1s-1-2.3-2.2-3c-1.8-1-2.9-0.4-6.3,3.2c-2.2,2.4-5.1,5-6.3,5.7c-2,1.1-2.1,1.6-0.7,3.2
			c0.9,1,3.9,3.2,6.7,4.8c4.5,2.5,5.3,2.6,6.8,1.1c1.4-1.4,2.6-1.5,6.9-0.3l5.2,1.4l-2.9,1.9c-5.4,3.6-7,5.5-7.8,8.7
			c-0.6,2.7-0.3,3.4,2.1,4.5c1.6,0.7,4,3.6,5.4,6.4c1.4,2.8,4.1,6.1,6.1,7.2c4.3,2.6,5.6,5.3,3.1,6.7c-2.3,1.3-1.2,3.2,1.9,3.2
			c3.7,0,3.7,2.2,0.1,14.9c-4.3,15.3-8.2,20.5-18.4,24.2c-4,1.5-8.9,2.8-10.8,2.9c-4.5,0.3-8,2.2-11.1,6.1l-2.4,3.1l-1.1-3
			c-1.5-3.9-4.9-4.9-9.7-2.8c-4.5,1.9-7.4,4.9-8.6,8.8c-1.1,3.5,2.7,9.6,8.9,14.5c5.1,4,10.8,14.2,12.2,21.6
			c1.2,6.4-0.9,10.7-6.5,13.2c-2.5,1.1-4.9,3-5.3,4.2c-0.9,2.8-6.1,6.2-7.1,4.6c-0.4-0.6-0.4-2.2,0-3.4c0.4-1.2,0.4-3,0-4.1
			c-0.6-1.5-1.2-1.7-3.1-0.7c-1.9,1-2.7,0.8-4.3-1.5c-3.9-5.6-15-14.6-18.1-14.6c-1.1,0-1.5,1.3-1.3,4.1c0.2,2.3-0.3,6.7-1,9.9
			c-1.2,5.1-1,6.1,1.2,9c1.3,1.8,2.8,4.7,3.2,6.3c0.4,1.7,3.8,5.4,7.7,8.6c6.5,5.2,7.2,6.3,9.9,14.9c1.6,5.1,2.9,9.8,2.9,10.4
			c0,2-2.5,1.2-7.6-2.5c-5.3-3.8-8.7-9.9-11.6-20.6c-1.2-4.6-2.6-6.6-6.4-9.4c-4.7-3.5-4.8-3.8-4.5-9.5c0.2-3.2,0.7-7.9,1.2-10.2
			c0.6-3.3,0.1-5.7-2.2-10.6c-1.7-3.5-3.6-8.8-4.4-11.8c-1.7-6.8-4-7.9-8.2-4c-1.7,1.6-3.5,3-3.9,3c-1.9,0-4.5-4-3.8-6
			c1.1-3.5-5.8-15.9-9.8-17.6c-2.2-0.9-4.2-3.1-5.6-6.1c-2.4-5.2-5-7.2-7.6-5.8c-1,0.5-4.8,1.6-8.5,2.3c-6.8,1.4-9.3,3.5-8.4,7
			c0.3,1.3-0.9,2.6-3.7,4c-2.3,1.1-4.8,3.3-5.6,5c-0.7,1.6-2.4,3.3-3.6,3.7s-3.2,2.2-4.3,4c-1.1,1.8-4.4,5.1-7.3,7.4
			c-4,3.1-5.2,4.8-5,6.9c1.2,12.6-0.6,23.1-5,29.4c-4.2,6.1-4.5,6.3-8.1,4.6c-2-0.9-3.2-2.7-3.7-5.3c-0.4-2.2-2.8-8.4-5.3-13.7
			c-15.1-32.4-17.3-38.6-16-44.5c0.9-4-1.2-9.9-3.2-9.3c-0.8,0.3-1.5,1.2-1.5,2.2c-0.1,5.4-6.2,6.2-10.9,1.5l-3.1-3.1l2.7-1
			c3-1.1,2.8-4.1-0.3-3.6c-1.1,0.2-3.6-1-5.6-2.7c-2-1.7-4-3-4.6-3s-1.4-1.1-1.8-2.4c-1.1-3.4-7.4-6.4-10.5-5
			c-2.8,1.3-28.5,1-32.8-0.3c-1.5-0.5-4.4-2.7-6.4-4.9c-3.5-4-3.6-4-8.9-2.6c-5,1.3-5.7,1.2-12.5-2.2c-5.8-2.9-7.6-4.5-9.4-8.5
			c-2.3-5.1-7.4-8.8-10.5-7.6c-1,0.4-2.1,2.2-2.5,4.1c-0.6,2.7,0,4.5,2.9,8.4c2,2.7,4.2,7,4.9,9.5c1.4,5.3,4.3,6.9,6.6,3.7
			c1.4-1.9,1.8-2,2.8-0.5c0.6,1,0.9,2.3,0.7,2.9c-0.7,2,6.2,5.4,9.3,4.6c1.6-0.4,5-3.1,7.6-6.1c4.1-4.6,5.5-4.9,4.8-1.1
			c-0.5,2.6,1.6,5.7,5,7.5c5.3,2.7,12.6,8.8,12.6,10.4c0,0.8-1.4,2.7-3.1,4.2s-4.1,4.9-5.4,7.4c-3.1,6.1-12.1,14.9-15.2,14.9
			c-3.5,0-8.8,3-10.9,6.2c-1,1.5-3.6,3.6-5.8,4.7c-11.2,5.6-24.7,11.3-28.5,12c-4.1,0.8-4.4,0.6-6.6-3.7c-1.2-2.5-2.7-7.4-3.1-11
			c-0.6-4.6-1.8-7.6-4.3-10.4c-1.9-2.1-3.4-4.4-3.4-5s-2.1-3.3-4.7-6c-3.2-3.3-5.3-7-6.7-11.5c-1.1-3.7-3.2-8.2-4.8-10.2
			c-10.8-13.5-14-18.2-15.7-23.2c-2.1-6.6-4-7.6-4.8-2.8l-0.6,3.4l-4-5c-6.2-7.8-6.9-4.2-1.2,5.2c2.7,4.5,7.1,12.4,9.7,17.6
			c2.6,5.2,6,11.1,7.5,13.1c1.6,2.1,2.8,5.3,2.8,7.5c0,4.5,1.3,7.2,6.5,13.7c2.1,2.6,4.2,6.4,4.6,8.4c0.6,2.6,2.8,5.3,7.7,9.3
			c7.4,6,12.3,12.2,13.5,17.4c0.5,2,2.2,4,4.3,5.1c3.3,1.7,4.5,1.7,14.9-0.6c6.2-1.3,12.8-3.2,14.6-4.2l3.3-1.7l0.8,4.7
			c0.7,4.2-0.1,6.3-8.5,22.4c-9,17.3-9.5,17.9-18.5,25c-5.1,4-10.4,8.9-11.8,10.9c-1.4,2-5.9,7.3-10,11.9c-12,13.3-13.6,25-5.7,40.7
			c2,4,2.8,7,2.3,8.9c-0.4,1.6-0.1,5.6,0.6,8.9c1.1,5.2,1,6.6-0.9,10.4c-2.8,5.5-5,7.4-12.8,11.4c-3.4,1.7-6.2,3.6-6.2,4.2
			s-2.4,3.8-5.3,7.1c-2.9,3.3-5.3,6.5-5.3,7.2s1.1,3.3,2.4,6c4,7.9,1.3,13.6-8.3,17.6c-4.1,1.7-5.4,5.1-4.4,11.3
			c0.5,3.2,0.2,4.3-1.6,5.3c-1.3,0.7-3.6,3.2-5.1,5.6c-4.8,7.6-18.8,21.1-25.1,24.2c-5.3,2.7-6.6,2.9-10.5,1.8
			c-3.4-0.9-6.2-0.8-11.9,0.6C475.4,1345.9,476.4,1346,472.8,1342.4L472.8,1342.4z M628.4,965.7c3-1.6,3.5-2.4,3.5-6.9
			c0-3.2-0.7-5.7-1.8-6.7c-1-0.8-2.7-3.1-3.7-5c-1.6-3.2-1.6-3.4,0.1-2.8c2.3,0.9,5.4-0.2,5.4-1.8c0-0.6-1.1-2.7-2.4-4.6
			c-2-2.8-2.8-3.2-4.7-2.2c-1.5,0.8-2.3,0.8-2.3,0c0-0.7-2.1-2.3-4.7-3.6c-5.7-2.9-7.7-6.1-6-9.5c1.3-2.5,6.2-4.3,8.2-3
			c2.8,1.7,3.6-0.8,1.3-4c-5.5-7.8-13.3-7.3-22.8,1.5c-6.2,5.7-6.7,7.2-3.2,9c1.3,0.7,2.4,2.1,2.4,3s2.1,4,4.7,6.8
			c5.9,6.4,7,9.3,6.3,16.9l-0.6,6.1l8.1,4.2c4.5,2.3,8.3,4.2,8.5,4.2C624.8,967.5,626.5,966.7,628.4,965.7L628.4,965.7z
			 M595.9,1295.6c-3.3-1.9-3.8-2.9-4.7-9.9c-0.7-5.6-0.4-6.8,2.9-12.2c3.4-5.5,3.6-6.6,2.9-12.5c-1.1-8.6,0.8-13.2,5.8-14.3
			c4.7-1,15-10.1,17.4-15.4l1.9-4.1l1.3,2.9c3.3,7.2,2.9,10.3-2.8,26.1c-3,8.4-6.3,18.5-7.3,22.4c-3,12.5-4.8,15.5-9.7,17
			C598.3,1297.3,598.8,1297.3,595.9,1295.6L595.9,1295.6z M1177.7,1275.1c-3.8-4.1-6-7.7-6-9.4c0-4,0.6-3.6,4,2.2
			c1.6,2.8,4.6,6.6,6.5,8.5s3.6,3.9,3.6,4.4C1185.8,1283,1183.3,1281.3,1177.7,1275.1L1177.7,1275.1z M650.8,1273.4
			c0-0.6,0.5-1.2,1.2-1.2s1.2,0.5,1.2,1.2c0,0.6-0.5,1.2-1.2,1.2S650.8,1274.1,650.8,1273.4z M1272.7,1271.3c-0.4-0.7-0.2-1.6,0.5-2
			c1.8-1.1,2.4-0.2,1.2,1.7C1273.8,1271.9,1273.2,1272.1,1272.7,1271.3L1272.7,1271.3z M659.1,1269.4c0-0.3,0.5-0.8,1.2-1.3
			s1.2-0.2,1.2,0.5c0,0.7-0.5,1.3-1.2,1.3S659.1,1269.7,659.1,1269.4z M1242,1257.4c-1.2-3,0.3-4,3.6-2.6c2.8,1.3,2.9,1.5,0.9,2.9
			C1243.8,1259.7,1242.9,1259.7,1242,1257.4z M1249.5,1252.1c-2.3-1.4-0.7-2.6,3-2.1c2.9,0.4,2.9,0.5,0.9,1.8
			C1252.1,1252.6,1250.5,1252.7,1249.5,1252.1L1249.5,1252.1z M1194.4,1247.8c-2.4-5.2-1.6-7.2,0.9-2.2c2.6,5.2,2.7,5.4,1.4,5.4
			C1196.2,1251,1195.2,1249.5,1194.4,1247.8z M1198.9,1247c-0.1-1.2,0.2-1.9,0.6-1.6c0.4,0.4,0.4,1.4,0.1,2.3
			C1199.2,1248.6,1199,1248.3,1198.9,1247L1198.9,1247z M1295,1235.6c-1.1-1.7-0.1-2.6,2.5-2.2c1.8,0.4,1.9,0.6,0.2,1.9
			C1296.4,1236.5,1295.6,1236.6,1295,1235.6L1295,1235.6z M597,1229.7c-0.4-0.6-0.2-1.2,0.5-1.2s1.3,0.5,1.3,1.2
			c0,0.6-0.2,1.2-0.5,1.2S597.4,1230.4,597,1229.7z M1115.5,1218.6c-7.5-2.4-10.9-4.5-13.8-8.9c-3.4-5-9.5-8.8-12.7-7.8
			c-1.3,0.4-3.4,2.6-4.7,4.9c-2.3,3.9-2.7,4.1-6.9,3.3c-2.4-0.4-5.8-2.1-7.6-3.7c-2.2-2-3.9-2.7-5.6-2.1c-1.3,0.4-3.3,0.3-4.3-0.3
			c-1.6-0.9-1.5-1.3,1.1-3c3-2,3-2,1-6.2c-1.6-3.4-3.9-5.2-11.2-8.8c-5-2.5-10.7-4.6-12.6-4.6c-4.4,0-6.2-4-2.9-6.5
			c2-1.4,1.7-1.8-3.5-4.3c-5.5-2.6-5.5-2.8-2.9-4.2c1.5-0.8,3.8-1.5,5.3-1.5c2.8,0,6.3,3.9,6.3,7.1c0,1.1,1.1,3.4,2.6,5.2
			c2.5,3.2,2.6,3.2,4.4,0.9c1-1.3,4.3-3.7,7.3-5.5l5.4-3.1l7.5,3.4c4.2,1.9,10,4.3,13.1,5.4s9.2,4.4,13.6,7.3
			c8.4,5.5,12.1,10.2,10,12.7c-1.7,2.1,5,11.4,12,16.7C1124.1,1220.7,1123.9,1221.3,1115.5,1218.6L1115.5,1218.6z M1166.9,1218.5
			c-0.9-1.1-1-1.8-0.2-1.8c1.4,0,3.1,2.2,2.3,3.1C1168.7,1220.1,1167.8,1219.5,1166.9,1218.5L1166.9,1218.5z M968.5,1213.7
			c-1.7-0.9-2.2-1.6-1.2-1.7c2.1,0,5.5,1.9,4.7,2.7C971.7,1215.1,970.1,1214.6,968.5,1213.7z M988.5,1212.2
			c3.3-4.7,8.6-6.7,13.4-5.2c3.5,1.1,3.6,1.2,0.8,1.3c-1.7,0.1-5.5,1.7-8.6,3.7C987.1,1216.5,985.4,1216.5,988.5,1212.2
			L988.5,1212.2z M1159.8,1213.8c-1.6-1.9-1.2-2.2,1.7-1.1c1,0.4,1.9,1.2,1.9,1.8C1163.4,1216.1,1161.5,1215.7,1159.8,1213.8z
			 M1165.4,1212.7c-0.4-1.2-0.8-3-0.7-4.1c0.1-1.3,0.5-1,1.2,0.9c0.6,1.6,1,3.4,0.7,4.1C1166.3,1214.3,1165.8,1213.9,1165.4,1212.7
			L1165.4,1212.7z M1256.7,1213.9c0-0.3,0.5-0.8,1.2-1.3s1.2-0.2,1.2,0.5c0,0.7-0.5,1.3-1.2,1.3S1256.7,1214.1,1256.7,1213.9z
			 M954.6,1208.9c-0.8-0.3-1.2-1.1-0.8-1.7c0.9-1.5,8.5-1.4,9.4,0.1c0.4,0.6,0,1.2-0.8,1.2c-0.9,0-2.6,0.2-3.9,0.5
			C957.2,1209.3,955.4,1209.2,954.6,1208.9L954.6,1208.9z M972.1,1208c-2.1-2.6,0.3-3.4,5.9-1.9c5.6,1.5,5.6,1.7-0.2,2.8
			C974.8,1209.5,973.1,1209.2,972.1,1208z M1149.5,1207.3c-0.8-1.3-1-2.4-0.3-2.4c0.6,0,1.7,1.1,2.4,2.4c0.7,1.3,0.8,2.4,0.3,2.4
			C1151.4,1209.7,1150.3,1208.6,1149.5,1207.3z M1156.9,1206.1c-3.2-3.5-1.5-4,1.8-0.6c1.5,1.6,2.2,2.9,1.6,2.9
			S1158,1207.4,1156.9,1206.1L1156.9,1206.1z M935.4,1205.9c-4.2-0.6-10.2-1.9-13.2-2.9c-3.1-1-6.7-1.5-8-1
			c-2.7,0.9-14.2-2.5-14.2-4.2c0-3.8,10.6-4.1,16.2-0.4c2.1,1.4,3.8,1.4,8.2,0.4c4.9-1.1,5.9-1,8.8,1.2c1.8,1.3,3.8,2.4,4.5,2.4
			c2.3,0,9.4,4,8.8,4.9c-0.3,0.5-1.2,0.9-2,0.8C943.7,1207,939.6,1206.5,935.4,1205.9L935.4,1205.9z M1147.4,1200.2
			c-1.2-1.3-1.6-2.4-1-2.4c0.6,0,2.1,1.1,3.3,2.4c1.2,1.3,1.6,2.4,1,2.4S1148.6,1201.5,1147.4,1200.2L1147.4,1200.2z M1140,1198.7
			c-0.7-0.8-1.6-3.1-2-5c-0.7-3.1-0.6-3.3,0.7-1.2c0.8,1.3,2.2,3.2,3.1,4.3c1,1.1,1.2,2.2,0.6,2.6
			C1141.7,1199.9,1140.6,1199.5,1140,1198.7z M1115,1195l-2.9-1.6l4.5-0.9c2.5-0.5,6.3-2.4,8.5-4.4c2.4-2.1,4-2.9,4-1.9
			c0,2.4-1.5,4.3-5.9,7.5C1118.6,1197.1,1118.8,1197.1,1115,1195L1115,1195z M893.4,1190.4c-4.3-2.5-12.2-12-14.7-18
			c-1.4-3.2-4.5-8.5-7-11.7s-5.3-7.5-6.3-9.4c-1-1.9-4-5.7-6.7-8.3c-5.7-5.5-9.2-11.2-6.8-11.2c3.1,0.1,11.1,4.5,14.5,8.1
			c9.4,9.9,11.4,11.6,15.8,14.4c4.3,2.6,6.3,5.4,6.5,8.9c0,0.6,1.3,2.5,2.7,4.1c1.5,1.6,4.2,4.7,6.1,6.8c1.9,2.1,3.8,5.4,4.2,7.3
			C903.1,1187.5,898.1,1193,893.4,1190.4L893.4,1190.4z M655.5,1189.6c0-0.6,0.5-1.2,1.2-1.2s1.2,0.5,1.2,1.2c0,0.6-0.5,1.2-1.2,1.2
			S655.5,1190.2,655.5,1189.6z M967.9,1189.6c-0.4-0.7-0.4-2.2,0-3.5c0.4-1.3-0.1-3.5-1.1-5.1c-1.6-2.5-1.6-3,0.2-5.6
			c1.1-1.6,2.4-5.7,2.9-9.3c0.6-4.4,1.8-7.3,3.7-9.2c2.6-2.6,3.2-2.7,9-1.6c5,0.9,6.9,0.8,9.6-0.6c4.5-2.3,4.9-2.2,3.4,1.1
			c-1.9,4.2-5.7,5.5-9.8,3.4c-7.2-3.8-16.8,1.8-11.7,6.9c1.9,1.9,2.9,2,6.3,1c5.9-1.7,8.2-1.4,4.5,0.6c-4.1,2.2-4.9,4.7-2.8,8.9
			c1,1.9,1.8,4.8,1.8,6.5c0,2.7-0.3,2.9-2.4,1.8c-1.3-0.7-3.2-3.2-4.2-5.6c-1.8-4.3-1.8-4.3-4.1-2c-2,2-2.1,2.9-1,6.9
			c1,3.6,0.9,4.8-0.3,5.6C969.7,1191,968.8,1191,967.9,1189.6L967.9,1189.6z M1129.9,1183.3c-1.1-1.7-3.7-3.9-5.7-5
			s-3.4-2.1-3.1-2.5c1.8-1.8,12.1,6.5,11.2,9.1C1132.2,1185.7,1131.1,1185,1129.9,1183.3L1129.9,1183.3z M944.5,1179.3
			c-1.8-0.9-4.2-1.4-5.3-1c-2.9,0.9-14.6-1.4-15.8-3.2c-0.9-1.4-3.6-10.1-5.1-16.2c-0.4-1.7,0-3.9,0.9-5.2c1.4-1.8,2.1-2,4.2-0.8
			c2.3,1.2,2.7,1,4-1.7c0.8-1.7,3.4-4.1,5.7-5.3c2.5-1.3,4.9-3.7,5.8-5.8c1-2.4,2.8-4,5.5-4.9c2.2-0.7,5.4-3.1,7.1-5.4s3.7-4,4.5-4
			c0.8,0,3.1,1.8,5.2,3.9l3.8,3.9l-3,4.1c-3.4,4.6-3.3,8.6,0.6,14.1l2.4,3.3l-2.9,1.9c-1.6,1.1-2.9,2.6-2.9,3.4
			c0,2.7-7.6,18.3-9.5,19.5C948.3,1180.7,946.7,1180.5,944.5,1179.3L944.5,1179.3z M1013.1,1179.3c-2.4-0.6-2.8-2.7-0.4-2.7
			c0.9,0,3.4,0.4,5.6,0.8c3.3,0.7,3.6,0.9,1.6,1.7C1017.2,1180.1,1016.1,1180.1,1013.1,1179.3L1013.1,1179.3z M1201.2,1164.2
			c0-0.3,0.5-0.8,1.2-1.3c0.6-0.4,1.2-0.2,1.2,0.5c0,0.7-0.5,1.3-1.2,1.3C1201.7,1164.8,1201.2,1164.5,1201.2,1164.2z M1008.9,1161
			c-0.9-0.9-1-2-0.2-3.6c0.6-1.2,0.9-2.7,0.5-3.3c-1.1-1.7,1.6-5.9,3.8-5.9c1.7,0,1.7,0.2-0.1,2.2c-1.6,1.7-1.7,2.9-0.8,5.3
			C1014,1160.7,1012,1164.1,1008.9,1161L1008.9,1161z M415.8,1157.2c0-0.3,0.5-0.8,1.2-1.3c0.6-0.4,1.2-0.2,1.2,0.5
			c0,0.7-0.5,1.3-1.2,1.3S415.8,1157.4,415.8,1157.2z M1234.8,1154.1c-0.4-0.6-0.2-1.2,0.5-1.2c0.7,0,1.3,0.5,1.3,1.2
			c0,0.6-0.2,1.2-0.5,1.2C1235.8,1155.3,1235.2,1154.8,1234.8,1154.1z M422.8,1143c0-0.3,0.5-0.8,1.2-1.3c0.6-0.4,1.2-0.2,1.2,0.5
			c0,0.7-0.5,1.3-1.2,1.3S422.8,1143.3,422.8,1143z M990.9,1125.2c-2.3-5.3-2.6-5.5-6-4.7c-3.5,0.8-3.6,0.7-2.3-1.8
			c1.1-2,2.1-2.4,4.6-1.8c2.4,0.5,4,0,6.4-2.2c1.7-1.6,3.2-3.9,3.2-5.1c0-3,4.4,7,5.4,12.4c0.8,4.1,0.7,4.3-1.2,2.8
			c-2.7-2.3-5.4,0.1-3.1,2.8c0.9,1.1,1,1.8,0.3,1.8c-0.7,0-2.1,0.3-3.1,0.7C993.8,1130.6,992.7,1129.3,990.9,1125.2L990.9,1125.2z
			 M775.6,1127.3c-1.3-2.1-2.1-11.8-1.1-14.3c1-2.7,1.1-2.7,4.1,1.8c3.6,5.3,4.8,8.7,3.6,10.6C781,1127.1,776.3,1128.5,775.6,1127.3
			L775.6,1127.3z M1039.4,1121.2c0-0.6,0.5-1.5,1.2-1.9s1.2-0.2,1.2,0.5s-0.5,1.5-1.2,1.9S1039.4,1121.9,1039.4,1121.2z
			 M1224.8,1121.1c0-0.6,0.2-1.2,0.5-1.2c0.3,0,0.8,0.5,1.3,1.2c0.4,0.6,0.2,1.2-0.5,1.2S1224.8,1121.7,1224.8,1121.1z
			 M956.7,1114.2c0-0.5,2.4-3.6,5.3-6.8c4.2-4.7,5.3-5.4,5.3-3.4c0,1.3-1.7,4.4-3.9,6.8C959.6,1114.9,956.7,1116.4,956.7,1114.2z
			 M982.3,1111.1c-0.4-1.1-0.3-2.8,0.2-3.8c0.8-1.5,1.2-1.5,2.3-0.1c1,1.3,1,2.2-0.2,3.8C983.1,1113,983,1113,982.3,1111.1z
			 M77.8,1106.5c0.7-0.9,1-1.9,0.5-2.4c-0.4-0.4,0.3-0.8,1.7-0.8c1.9,0,2.3,0.6,1.8,2.4c-0.4,1.4-1.6,2.4-3,2.4
			C77,1108.1,76.8,1107.7,77.8,1106.5L77.8,1106.5z M990.2,1106.2c-0.4-1.2-1-2.6-1.3-3.1c-0.3-0.5,0-0.9,0.6-0.9
			c1.2,0,2.8,4.8,2,5.7C991.2,1108.2,990.6,1107.4,990.2,1106.2z M978.2,1103.1c-1.7-2,0-4.8,2.4-4.3c1.6,0.3,1.6,0.8,0.4,3.1
			C979.8,1104.2,979.3,1104.4,978.2,1103.1z M992.2,1099c-1.4-1.7-2.3-3.3-2-3.6c1-1,4.3,1.2,6,3.9
			C998.9,1103.5,995.5,1103.2,992.2,1099z M972.8,1094.5c-1.1-1.1-1.9-2.5-1.9-3.3s1.2-0.2,2.6,1.2c1.4,1.4,2.3,2.9,1.9,3.3
			S973.8,1095.5,972.8,1094.5z M45.7,1094.3c-0.4-0.4-0.8-1.3-0.8-2c0-0.7,0.6-0.7,1.4,0.2c0.8,0.8,1.1,1.7,0.8,2
			C46.7,1094.8,46.1,1094.7,45.7,1094.3z M39,1092.7c0-0.6,0.2-1.2,0.5-1.2s0.8,0.5,1.3,1.2c0.4,0.6,0.2,1.2-0.5,1.2
			S39,1093.4,39,1092.7z M94.5,1090.4c0-0.6,0.2-1.2,0.5-1.2s0.8,0.5,1.3,1.2c0.4,0.6,0.2,1.2-0.5,1.2S94.5,1091,94.5,1090.4z
			 M984.6,1090.2c-1.2-0.7-3.4-0.9-5-0.5c-2.3,0.6-3.9-0.3-8.1-4.8c-6-6.2-7.2-8.8-5.4-12.2c0.7-1.3,1.2-3.9,1.2-5.9
			c0-6.4,4.3-6.2,7.4,0.4c1.7,3.7,1.8,4.4,0.1,8.4c-1.8,4.2-1.7,4.4,1.4,7.7c2.3,2.4,4,3.2,5.8,2.7c1.5-0.4,3.2,0.1,4,1.2
			C988.2,1089.9,987.3,1091.7,984.6,1090.2L984.6,1090.2z M87.4,1082.8c0-0.3,0.5-0.8,1.2-1.3s1.2-0.2,1.2,0.5
			c0,0.7-0.5,1.3-1.2,1.3S87.4,1083,87.4,1082.8z M272.8,1078.6c0-0.6,0.5-1.2,1.2-1.2c0.6,0,1.2,0.5,1.2,1.2c0,0.6-0.5,1.2-1.2,1.2
			C273.4,1079.7,272.8,1079.2,272.8,1078.6z M83.9,1074c0-0.6,0.5-1.5,1.2-1.9s1.2-0.2,1.2,0.5s-0.5,1.5-1.2,1.9
			S83.9,1074.6,83.9,1074z M73.8,1069.1c-0.4-0.7,0.1-0.9,1.1-0.5c2,0.8,2.4,1.6,0.7,1.6C75.1,1070.3,74.2,1069.8,73.8,1069.1z
			 M261.6,1069.1c-0.4-0.6-0.2-1.2,0.5-1.2s1.3,0.5,1.3,1.2c0,0.6-0.2,1.2-0.5,1.2C262.6,1070.3,262,1069.8,261.6,1069.1z
			 M78.6,1066.7c-0.4-0.6-0.2-1.2,0.5-1.2s1.3,0.5,1.3,1.2c0,0.6-0.2,1.2-0.5,1.2S79,1067.4,78.6,1066.7z M83.9,1066.7
			c0-0.6,0.2-1.2,0.5-1.2s0.8,0.5,1.3,1.2c0.4,0.6,0.2,1.2-0.5,1.2S83.9,1067.4,83.9,1066.7z M2.7,1063.6c-0.8-0.3-1.5-1.1-1.5-1.7
			c0-1.7,5.2-1.3,7.7,0.7c2.2,1.6,2.1,1.7-1.3,1.7C5.7,1064.2,3.5,1063.9,2.7,1063.6z M32.6,1062.9c-1.1-0.6-3.4-0.8-5.2-0.4
			c-1.8,0.4-4.6,0.2-6.2-0.4c-2.5-1-2.3-1.1,1.9-1c6.3,0.1,8-0.9,6.4-3.9c-1.1-2.1-0.8-2.3,4.8-2.3c5.5,0,13.3,2.5,14.6,4.7
			C49.9,1061,34.7,1064.1,32.6,1062.9L32.6,1062.9z M55.2,1063.7c-1.4-1.4,0.3-2.8,3.4-2.8c1.9,0,2.8,0.6,2.5,1.5
			C60.6,1064,56.5,1064.9,55.2,1063.7z M909.7,1061.8c-3.1-3.1,0-6.9,5.7-6.9c2.5,0,2.5,0,0.4,3.7
			C913.2,1063,911.7,1063.8,909.7,1061.8z M65,1061.6c0-0.3,0.8-0.8,1.8-1.1c1-0.4,1.8-0.2,1.8,0.5c0,0.6-0.8,1.1-1.8,1.1
			S65,1061.8,65,1061.6z M13.9,1053.1c-0.4-0.4-2.9-0.7-5.5-0.7c-3.7-0.1-4.6-0.4-3.7-1.5c0.9-1.1-0.4-2.5-4.7-5.3
			c-8.5-5.5-13.3-6.6-19-4.3c-5.4,2.1-5.8,2.2-5.8,0.9c0-2.5,9.4-5.2,16.2-4.7c6.5,0.5,10.1,1.9,22.8,8.7c10.4,5.6,10.5,5.6,7.1,6.6
			C17.4,1053.8,14.7,1053.9,13.9,1053.1z M22.5,1043.1c2.3-1.5,3.5-1.5,3.5,0c0,0.6-1.2,1.2-2.7,1.2
			C21.2,1044.3,21,1044,22.5,1043.1z M963.1,1041c-0.7-0.5-1.9-2.1-2.7-3.6c-1.2-2.3-1.1-3.3,0.7-6.4c2.8-4.7,4.6-5.3,5.5-1.7
			C967.5,1033.1,964.8,1042.2,963.1,1041L963.1,1041z M30.2,1039.5c0.8-1.3,5.2-1.4,5.2-0.2c0,0.5-1.3,1-2.9,1.1
			C30.9,1040.4,29.8,1040,30.2,1039.5L30.2,1039.5z M6.9,1028.1c-1.9-2.2-1.6-5,0.5-5c0.7,0,0.9,1,0.6,2.3c-0.3,1.3,0,2.5,0.7,2.8
			c0.7,0.3,1,0.8,0.7,1.2C9,1029.8,7.8,1029.2,6.9,1028.1z M13.7,1018.8c-0.4-1.1-0.5-2.3-0.2-2.6c0.3-0.3,0.9,0.3,1.4,1.4
			s0.5,2.3,0.2,2.6C14.7,1020.5,14.1,1019.9,13.7,1018.8z M6.3,1017.7c0-1,1-1.8,2.2-1.8c2,0,2.1,0.2,0.5,1.8c-1,1-2,1.8-2.2,1.8
			C6.5,1019.5,6.3,1018.7,6.3,1017.7z M996.8,991.8c0-0.9-1.3-3.2-2.9-5.1c-3.7-4.4-2.4-7.4,2-4.5c3.2,2.1,4.9,6.4,3.7,9.4
			C998.8,994,996.8,994.1,996.8,991.8z M80.3,984.7c0-0.3,0.5-0.8,1.2-1.3s1.2-0.2,1.2,0.5s-0.5,1.3-1.2,1.3S80.3,985,80.3,984.7z
			 M1003.4,983.3c-0.8-2,1-3.9,3.8-3.9c1.9,0,1.9,2.6,0.1,4.5C1005.3,985.8,1004.3,985.6,1003.4,983.3L1003.4,983.3z M1014.2,979
			c-2.3-3.5-5.5-4-12.9-1.9c-3,0.8-5.1,0.8-6.5,0c-1.1-0.7-1.4-1.2-0.7-1.2s3-1.4,4.9-3c2.5-2.1,4.4-2.8,6.4-2.3
			c2.1,0.5,4.4-0.5,9.2-4.1c9.3-7,10.2-9.2,6.4-16.7c-3.6-7.2-2.6-9.5,2.8-6.3c3.9,2.3,7.6,9,6.6,11.8c-0.4,1,0.2,4.2,1.3,7
			c1.5,4.1,1.7,5.8,0.7,7.7c-1.5,2.8-5.7,4.7-10.5,4.7c-2.7,0-3.5,0.7-4.4,3.8l-1.1,3.8L1014.2,979L1014.2,979z M535.7,974.9
			c-1.4-1.4-0.7-2.7,1.6-2.7c1.3,0,2.6-0.5,3-1.2c1.1-1.8,3-1.4,2.3,0.4C541.9,973.4,536.8,976,535.7,974.9L535.7,974.9z
			 M495.5,972.9l-3.5-1.6l4.7-0.1c5.9-0.1,10.2,1,9.4,2.4C505.1,975.1,499.5,974.8,495.5,972.9L495.5,972.9z M447.8,961.1
			c-4.7-2.4-4.9-2.7-2.5-3.4c3-0.8,9.5,0.2,9.4,1.4c0,0.4-0.4,1.6-0.9,2.7C453,963.6,452.5,963.5,447.8,961.1z M424.1,948.3
			c-1-2.9-0.9-4.1,0.4-5.4c2.4-2.4,4.3-0.7,4.3,3.9C428.7,952.2,425.8,953.2,424.1,948.3L424.1,948.3z M396.4,949.3
			c0.8-2.2,4.4-2.6,3.7-0.4c-0.3,0.8-1.4,1.6-2.5,1.9C396.3,951.1,395.9,950.6,396.4,949.3L396.4,949.3z M1013.5,935.8
			c-2.2-3-2.2-3.6-0.6-5.9c1.6-2.2,1.6-2.9-0.1-6c-2.7-5.1-2.3-5.4,2.3-1.9c2.3,1.7,6.8,3.9,10,4.9c6.6,2,8.2,3.5,4.8,4.6
			c-1.3,0.4-2.4,1.5-2.4,2.5c0,1.3-0.8,1.5-3.2,0.9c-6.2-1.6-8-1.2-7.6,1.7C1017.2,940.1,1016.4,939.9,1013.5,935.8L1013.5,935.8z
			 M426,937.2c-1.4-1.4-0.9-3.7,1-4.4c1.3-0.5,1.8,0.1,1.8,2.2C428.7,937.9,427.6,938.8,426,937.2z M1006,912.3
			c-1-1.1-3.4-5.3-5.4-9.2c-1.9-3.9-7.1-11.1-11.5-15.9c-4.9-5.4-7.3-9-6.4-9.3c0.8-0.3,2.6,1,3.9,2.7c3.2,4.3,7.3,8.1,13.6,12.7
			c5.2,3.9,7.8,7.4,4.4,6.1c-3.9-1.5-2.9,2.1,2.1,7.7c2.9,3.3,5.3,6.3,5.3,6.6C1012.2,915.3,1007.6,914.1,1006,912.3L1006,912.3z
			 M141.7,910.2c0-1,0.5-1.8,1.1-1.8s0.8,0.8,0.5,1.8c-0.4,1-0.9,1.8-1.1,1.8C142,912,141.7,911.2,141.7,910.2z M135.6,906.4
			l-4.4-0.5l8.3-8.2c4.6-4.5,8.9-8.2,9.6-8.2c0.8,0,0.5,0.9-0.5,2.1c-2.5,2.7-0.8,5.8,3.7,6.8c2,0.4,3.9,1.9,4.7,3.6
			c1.2,2.7,1,2.9-3.1,4.1C149.5,907.3,144.4,907.4,135.6,906.4L135.6,906.4z M-152.2,898c-4.1-3.8-4.5-5.4-1.8-6.5
			c2.4-0.9,6.9,2.1,8.6,5.8c1.8,3.9,1.8,4.1-0.9,4.1C-147.5,901.4-150.2,899.8-152.2,898z M367.9,892c1.3-0.6,3.9-1.7,5.7-2.4
			c4-1.5,3.4-3-1.7-4c-3.5-0.7-3.6-0.9-1.6-2.3c1.2-0.9,1.8-2.1,1.4-2.8c-0.4-0.7,0.8-1.8,2.8-2.5c1.9-0.7,3.5-1.8,3.5-2.4
			c0-2.7-2.5-7.3-3.8-7.1c-3.2,0.4-4.6-0.1-4.1-1.6c0.3-0.8,0.1-2.4-0.5-3.5c-1.5-3,2-9.1,5.2-9.1c0.5,0,0.8,0.6,0.6,1.4
			c-0.2,0.8,1,1.6,2.5,1.9l2.8,0.4l-2.6,2.8l-2.6,2.8l3,1.1c3.2,1.2,6.3,5.2,9.4,12.1c1.5,3.3,2.5,4.2,4.3,3.7
			c3.6-0.9,4,1.5,0.7,3.7c-2.3,1.5-2.7,2.4-1.7,3.4c1,1-1,1.7-7.8,2.7c-5.1,0.7-11.1,1.7-13.3,2.1
			C366.5,892.9,366.1,892.9,367.9,892L367.9,892z M348,885.4c-0.4-1.1,0.1-3.4,1-5.3c1.1-2.1,1.3-3.7,0.6-4.1
			c-2-1.3-1.3-2.9,1.7-3.6c1.6-0.4,3.5-1.5,4.3-2.4c1.6-1.9,8.8-2.2,9.9-0.5c0.4,0.6-0.1,2.4-1.1,3.8c-1,1.4-1.8,4-1.8,5.8
			c0,2.6-0.8,3.4-5,4.9c-2.8,1-5.9,2.1-6.9,2.6C349.4,887.1,348.5,886.7,348,885.4z M369.7,873.7c0-0.3,0.5-0.8,1.2-1.3
			c0.6-0.4,1.2-0.2,1.2,0.5c0,0.7-0.5,1.3-1.2,1.3C370.2,874.2,369.7,874,369.7,873.7z M-154.5,868c-1.2-1.4-1.1-2,0.4-3.2
			c2.4-2,3.6-0.6,2.2,2.5C-152.9,869.4-153.2,869.5-154.5,868L-154.5,868z M-156.3,859.1c-0.4-0.6,0.1-1.8,1-2.6
			c1.9-1.6,2.3-0.3,0.7,2.2C-155.2,859.7-155.9,859.8-156.3,859.1z M-232.7,858.4c0-0.8,3.6-2.3,8.7-3.5c1.9-0.5,3.1-0.4,2.7,0.3
			c-0.4,0.6-2.1,1.4-3.9,1.7c-1.8,0.4-4.2,1-5.3,1.5C-231.7,858.8-232.7,858.8-232.7,858.4L-232.7,858.4z M469.2,845.1
			c-2.2-0.9-1.8-2.2,0.7-2.4c1.2-0.1,2.2,0.6,2.2,1.5C472,846,471.6,846.1,469.2,845.1L469.2,845.1z M209.7,839.1
			c-7.5-4.1-11-10.3-8.9-15.6c1-2.5,1.1-4,0.1-5.8c-2-3.7,0.6-7.9,7.1-12c3.1-1.9,6.2-4.5,6.9-5.8c1.9-3.5,0.2-9.6-3.1-11.1
			c-1.7-0.8-2.6-2-2.2-2.9c0.8-2.2-3.1-9.6-7-13.3c-2.9-2.7-4.1-3-14-3c-13.4-0.1-15.9-0.8-15.7-4.7c0.1-1.6,0.4-2.9,0.8-2.9
			c0.3,0,5.1-0.6,10.6-1.2c7-0.9,13.3-2.6,21.2-6c12.1-5.2,13.1-5.3,42-4.6c9.1,0.2,17.5-0.5,28.3-2.3c10.1-1.7,17.5-2.3,21.5-1.9
			c3.4,0.4,8.3,0.1,11.1-0.6c6.4-1.7,23.2,0.4,29.8,3.7c3.9,2,6,2.2,12.5,1.6c7.1-0.7,7.6-0.6,5.5,1c-1.3,1-5.3,2.1-8.9,2.6
			c-7.8,1-14.9,6.5-13,10.1c0.8,1.5,0.2,2.8-2.4,5.3c-1.9,1.8-3.8,4.2-4.1,5.3c-0.8,2.6-11.3,7.4-16.4,7.6c-5.8,0.2-6.4,1.4-1.9,3.9
			c2.1,1.2,5.2,3.1,6.8,4.4l3,2.3l-2.7,1c-2.1,0.8-3.8,0.3-7.2-2.1c-4.7-3.2-9.7-3.3-7,0c1,1.3,0.8,1.8-1.2,2.3
			c-4.4,1.1-1.3,3.4,3.6,2.6c3.1-0.5,4.8-0.2,5.8,0.9c1.1,1.4-0.3,2-9,3.8c-5.7,1.2-13.3,2.2-16.8,2.3c-6.6,0.1-11.4,2-18.5,7.4
			c-2.3,1.7-7.2,3.5-12.9,4.6c-11.9,2.3-16,4.9-23.1,15.2c-5.8,8.2-9.3,11.3-12.8,11.3C216.4,842.3,212.9,840.8,209.7,839.1
			L209.7,839.1z M125.9,831.2c-2.5-1.6-5.6-4.5-6.9-6.5c-2.5-3.9-4.7-4.4-11.4-2.5c-2.3,0.6-4.8,0.7-5.8,0.1c-3.5-2,2.8-3.9,9.9-3
			c5.4,0.7,6.5,0.5,7.2-1.1c1.3-3.3,7-5.6,10.2-4.2c2,0.9,3.7,0.9,6.3-0.1c3.4-1.3,3.4-1.4,1.2-3c-1.3-0.9-2.7-1.7-3.2-1.7
			c-0.5,0-2.3-2.4-4-5.3c-1.7-2.9-4.9-6.4-7.1-7.7c-3.7-2.3-4.2-2.3-7.6-0.6c-2.9,1.5-4.6,1.6-9.2,0.6c-3.1-0.7-7.4-0.9-9.6-0.5
			c-3.8,0.7-10.8-1.2-10.8-2.9c0-3.2,10-10.3,15.9-11.4l4.7-0.8l-3.4,3.6c-4.7,5-2.9,7.2,2.2,2.8c2.1-1.9,5.9-3.8,8.2-4.2
			c3.6-0.7,5.2-0.2,9.8,2.8c6.1,4,6.6,4.1,10,2.3c2.1-1.1,2.8-0.8,5.1,2c1.6,1.9,5,4.1,8.4,5.1c5.4,1.7,5.8,2.1,5.8,5.8
			c0,2.8,0.8,4.6,2.7,5.9c7.9,5.7,7.8,5.4,6,8.2c-2.4,3.8-4.2,4-9.4,1.4c-3.6-1.8-5.2-2.1-7-1.1c-2.2,1.2-2.3,1.4-0.5,4.9
			c1.5,2.8,1.6,4.3,0.6,6.5c-1.2,2.7-1.4,2.7-4.8,1c-6.6-3.4-11-1.2-4.9,2.5c1.9,1.1,3.2,2.5,2.9,3C136.3,835,130.5,834,125.9,831.2
			L125.9,831.2z M368.5,832.7c0-0.5,0.8-1,1.8-1c1,0,1.8,0.4,1.8,1s-0.8,1-1.8,1S368.5,833.2,368.5,832.7z M81.4,826.3
			c-2.3-1.2-4.1-1.3-7.4-0.4c-5.5,1.5-7.5,0.4-4.7-2.7c3.6-4,6-4.8,10.4-3.3c4.9,1.6,7.1,4,5.7,6.3C84.6,827.7,84,827.7,81.4,826.3z
			 M316,825.8c-1.9-1.3-4.4-2-5.5-1.7c-1.5,0.5-1.8,0.1-1.4-1.7c0.7-2.7,11.1-6.6,14.6-5.5c1.2,0.4,4.3,0.1,6.9-0.7
			c4.1-1.2,5.2-1.1,7.9,0.7l3.2,2.1l-2.8,2.2c-2.4,1.9-6.9,3.5-17.6,6.4C320.3,827.9,317.9,827.1,316,825.8z M-4.7,803.8
			c-1.6-0.3-5.6-1.6-8.8-3.1l-5.8-2.6l8.2-0.6c4.5-0.3,8.2-1.1,8.2-1.8s-3.2-1.5-7.1-1.8c-5.1-0.5-6.1-0.8-3.5-1.2
			c4.3-0.7,4.6-2.5,0.6-3.5c-2.9-0.7-2.9-0.8,1.2-2.5c7.1-3,14.6-3.6,21.3-1.6c5.5,1.6,6.3,1.6,8.9-0.1c1.8-1.2,2.9-1.4,3-0.6
			c0.1,0.7,0.2,1.9,0.3,2.7c0.3,2.6,2.6,2.2,5.4-0.8c2.6-2.8,7.1-4.1,7.1-2.1c0,0.5-1.1,2.6-2.3,4.7l-2.3,3.8l3.8,2l3.8,2l-6.3,2.9
			c-5.6,2.6-6.8,2.7-11.9,1.5c-4.9-1.2-6.3-1-11.3,1.1C2.2,804.5,1.1,804.7-4.7,803.8L-4.7,803.8z M42.7,802.9
			c-1.1-1.3-0.6-1.9,2.1-3.1c1.9-0.8,4.7-1.1,6.1-0.6c2.6,0.8,2.5,0.9-1.4,3C44.6,804.9,44.3,804.9,42.7,802.9L42.7,802.9z
			 M368.5,797.5c2.3-1.5,3.5-1.5,3.5,0c0,0.6-1.2,1.2-2.7,1.2C367.2,798.6,367.1,798.4,368.5,797.5z M585.2,794.2
			c-6-2.4-5.9-2.3-4.2-4.4c0.8-1,1-1.8,0.5-1.8c-0.6,0,0-0.8,1.3-1.8c1.3-1,2.4-2.2,2.4-2.6c0-1.7,4.8-6.4,8.2-7.9
			c1.9-0.9,7-1.9,11.2-2.2c4.2-0.3,9.9-0.9,12.6-1.4c2.9-0.4,5.2-0.3,5.6,0.4c0.8,1.4-0.8,1.9-9.9,3.6c-9.1,1.6-14.6,4.2-18.2,8.5
			c-3.8,4.5-3.9,7.4-0.4,9.8l2.7,1.9l-3.5-0.1C591.6,796.1,587.8,795.2,585.2,794.2L585.2,794.2z M-33.3,790.8
			c-1.9-1.9-1.5-2.3,7.7-7.3c10.7-5.9,16.1-6.6,25.7-3.7l5.3,1.6l-7.1,1.4c-5.8,1.1-18.1,5.3-27.8,9.3
			C-30.5,792.4-32.2,791.9-33.3,790.8z M52,789.2c0-0.6-1.5-2-3.2-3l-3.2-1.9l4.3,0.7c3.1,0.5,4.6,0.2,5.3-1
			c0.8-1.4,8.3-4.3,11.3-4.3c0.5,0,0.1,1.6-0.9,3.5C63.2,787.9,52,792.8,52,789.2L52,789.2z M70.4,785.8c-1.7-2.7,9.9-7,14.8-5.4
			c3.6,1.1,1.2,3.1-5.1,4.1c-2.8,0.5-6,1.2-7,1.7C72,786.6,70.8,786.4,70.4,785.8L70.4,785.8z M108.1,777.1
			c-7.8-0.6-14.3-1.3-14.5-1.4c-1.1-1,1.6-4.2,4.4-5.3c2.8-1.2,4.1-1,7.9,0.9c3.7,1.9,6.1,2.2,13,1.7c4.7-0.3,10-0.2,11.8,0.2
			l3.3,0.8l-4.1,2.2c-2.3,1.2-4.9,2.2-5.9,2.1C123.1,778.3,115.9,777.7,108.1,777.1L108.1,777.1z M448,772.3c-5.8-3-6.4-4.3-1.8-4.3
			c1.8,0,4-0.6,5-1.3c1.5-1.1,1.5-1.2-0.2-0.7c-1.1,0.3-2.5,0-3.3-0.8c-1-1-1.6-1-2.3,0.1c-0.6,1-1.9,1.1-4.4,0.4
			c-6.2-1.9-7.6-2.7-7.6-4.5c0-1.6,1.6-1.7,11.2-1c7.4,0.5,11.2,0.4,11.2-0.4c0-2.3,3.3-1.2,4.1,1.5l0.9,2.7l0.5-2.7
			c0.3-1.5,1.3-2.7,2.2-2.7c0.9,0,1.7-0.6,1.7-1.4c0-1.1,0.3-1.1,1.4,0c0.8,0.8,4.8,1.4,9.4,1.4c8.4,0,10.4,1.5,4.8,3.7
			c-2.9,1.1-8,0.8-13.6-0.8c-1.1-0.3-2.1-0.2-2.1,0.4c0,1.1,6.6,5.1,8.4,5.1c0.6,0,1.9,0.7,2.8,1.7c1.4,1.4,1.4,1.8-0.1,2.3
			c-1,0.4-1.7,0.1-1.7-0.6c0-0.8-1.5-1-4.2-0.5c-3,0.6-4,0.4-3.4-0.5c0.4-0.7,0.2-2.1-0.6-3c-1.5-1.8-5.9-2.4-5.9-0.8
			c0,0.5-1.7,2.9-3.8,5.2l-3.8,4.2L448,772.3L448,772.3z M134.7,769.7c-2-1.2-4.9-1.6-9.4-1.1c-4.2,0.4-7.4,0.1-9.2-0.9
			c-2.4-1.4-1.8-1.5,5.6-1.5c9.2,0.1,13.3-1.9,8.3-4c-2.4-1-2-1.1,2-0.5c5.3,0.7,7.4-0.7,4.5-3.1c-3.1-2.6,0.3-3.4,11.3-2.6
			c6.8,0.4,11.1,0.2,12.8-0.7c3.3-1.8,2-4.1-1.8-3.1c-2.6,0.7-21-0.4-20.2-1.2c0.6-0.6,26.5-3,43.6-4c8.8-0.6,18.7-1.3,21.8-1.7
			l5.8-0.7l-9.5,4.6c-8.9,4.3-23.5,8.5-29.4,8.5c-1.5,0-5.6,1.6-9.3,3.5c-3.7,1.9-7.4,3.5-8.3,3.5c-0.9,0-4.8,1.6-8.6,3.5
			s-7,3.5-7,3.5C137.6,771.4,136.3,770.6,134.7,769.7L134.7,769.7z M111.6,758.9c-5.7-1.3-5.9-1.7-1.7-3.9c6.1-3.2,11.9-4,14.6-2
			c2.1,1.5,2,1.8-2.1,4.2C118.1,759.6,116.3,759.9,111.6,758.9z"/>
	</g>
</g>
</svg>
